PathFileType	4	(X/Y/Z)	C:\Users\WrightLab\Desktop\Jo\P2_Trial38.trc
DataRate	CameraRate	NumFrames	NumMarkers	Units	OrigDataRate	OrigDataStartFrame	OrigNumFrames
100.00	100.00	      20	19	mm	100.00	550	      1099
Frame#	Time	Headset_Front			Headset_Back			Headset_Left			Headset_Right			Left_Shoulder			Right_Shoulder			Sternum			C7			Left Elbow			Right Elbow			Left Wrist			Right Wrist			Left ASIS			Right ASIS			S2			Left Knee			Right Knee			Left Ankle			Right Ankle			
		X1	Y1	Z1	X2	Y2	Z2	X3	Y3	Z3	X4	Y4	Z4	X5	Y5	Z5	X6	Y6	Z6	X7	Y7	Z7	X8	Y8	Z8	X9	Y9	Z9	X10	Y10	Z10	X11	Y11	Z11	X12	Y12	Z12	X13	Y13	Z13	X14	Y14	Z14	X15	Y15	Z15	X16	Y16	Z16	X17	Y17	Z17	X18	Y18	Z18	X19	Y19	Z19	

550	5.490	-155.29370	1305.39172	36.32690	-139.77879	1588.93335	157.92627	-250.81706	1455.82141	149.96141	-48.41582	1410.95044	46.76078	-211.92867	1434.06348	351.02249	24.04323	1347.04456	167.50150	-127.11047	1253.75989	273.32047	-3.00524	1430.57324	323.38986	-264.21506	1137.01733	541.90167	87.90546	1072.66321	95.97500	-264.12781	914.75647	564.33887	9.49736	902.25732	-48.20284	-148.70804	1021.41876	418.54547	-50.72854	994.10107	333.69977	70.69803	993.84052	579.87000	-190.30225	486.74872	546.30035	90.46397	548.45178	361.03333	-209.31720	160.80663	428.50897	50.92403	114.91451	358.14008	
551	5.500	-156.27747	1305.32556	35.06838	-141.33090	1588.81885	156.30354	-250.99620	1455.31482	148.44296	-49.24088	1411.33667	46.26797	-213.31317	1434.30969	349.72076	23.00933	1346.60303	166.62138	-129.00389	1253.80151	272.52130	-3.98883	1430.66504	321.55060	-265.14963	1137.88379	541.37543	85.29239	1072.39331	94.00716	-265.04831	915.56244	564.31427	6.28921	900.04791	-48.76425	-149.87564	1021.97327	417.63708	-51.71251	994.58051	333.15085	69.89645	993.84521	578.55383	-191.15555	486.50613	547.29266	91.17995	548.64105	358.61243	-210.72890	160.24336	430.53998	51.06111	114.68797	357.25754	
552	5.510	-157.21153	1305.60339	32.21562	-142.67427	1588.68982	155.00826	-252.88266	1455.11682	146.52008	-50.74093	1411.27722	44.16650	-214.35844	1435.01038	347.81485	21.67602	1346.95068	164.38391	-130.61652	1254.25085	271.44574	-4.60726	1430.64746	320.02914	-265.95206	1138.86841	541.05560	82.77966	1072.25342	92.01181	-265.43231	916.69049	563.75500	3.82547	897.59711	-48.23030	-151.09480	1022.15625	416.52277	-52.93488	994.73022	331.87021	69.33336	994.12048	576.57153	-191.84047	486.60226	547.80743	91.90775	548.83765	355.46344	-213.02487	159.67433	432.84177	51.29081	114.64143	356.97324	
553	5.520	-157.51924	1305.13477	31.68447	-143.91347	1588.57361	153.59306	-254.39987	1455.28064	144.97150	-51.43000	1411.44202	43.96485	-215.14223	1435.24512	346.55597	20.47494	1346.36987	163.22469	-132.27739	1254.57703	270.29828	-5.62704	1430.42651	318.14078	-266.68686	1139.21594	540.86694	79.22075	1072.04932	90.18426	-266.44180	917.92688	563.74304	1.84051	895.74780	-48.86082	-151.73613	1022.20642	414.93518	-54.30529	994.89471	330.13440	67.96321	994.41003	575.27936	-192.67523	486.43555	548.32452	93.53613	549.20972	353.83533	-214.71486	159.09430	434.89920	51.54909	114.88544	355.83606	
554	5.530	-158.52739	1304.84692	30.37454	-145.69635	1588.15320	152.10934	-254.47542	1454.21497	143.65237	-52.51545	1411.66382	41.81404	-215.86742	1434.99707	345.68076	18.36705	1346.14722	161.45743	-133.26602	1254.21484	269.02142	-6.48193	1430.45166	316.67474	-267.25418	1140.02014	540.63037	76.70735	1071.87976	88.94344	-267.10437	918.35931	563.81750	-1.13531	894.19928	-49.43712	-152.42648	1022.40948	413.76730	-54.61441	994.64374	329.22031	66.68166	994.18250	574.68164	-193.71887	486.43927	548.68805	93.53226	549.07300	352.01025	-216.74271	158.22333	437.13745	51.95985	114.87540	355.04297	
555	5.540	-159.20683	1304.46375	28.40909	-146.84102	1587.90283	150.51483	-254.88548	1453.37939	141.94177	-53.13079	1411.39502	40.62960	-216.70345	1435.28625	344.67395	17.50101	1345.85657	160.79181	-134.28683	1254.42517	267.68814	-7.00884	1430.52576	314.66626	-267.83084	1140.93494	540.57642	74.49399	1071.60986	87.93457	-267.68088	919.51544	564.31775	-2.88492	892.72095	-49.49977	-153.22348	1022.47699	412.79749	-55.71930	994.59888	328.08194	66.07984	994.58801	573.92810	-194.71825	486.82339	548.88116	94.18112	549.41516	350.81165	-218.30507	157.49002	439.22702	52.09094	114.74615	354.73599	
556	5.550	-159.50810	1304.24341	27.87059	-148.28116	1587.96460	149.14691	-257.38651	1453.35693	140.85201	-53.74906	1411.40088	39.19783	-217.06294	1434.94336	343.56967	15.78572	1345.63269	159.50246	-136.22765	1254.81958	266.90027	-8.06839	1430.56165	313.33044	-268.31357	1141.57361	540.20050	71.26840	1071.43188	85.82656	-268.70407	920.43213	563.02203	-5.58261	890.83350	-49.69728	-153.74748	1022.61072	411.72083	-56.03917	994.52100	327.33804	64.75561	994.35242	572.20367	-195.39351	486.95279	548.39734	94.37550	549.32043	349.49692	-219.88435	156.31265	441.70444	52.39938	114.89214	353.29138	
557	5.560	-160.01152	1303.49255	27.24022	-149.35681	1587.66626	147.73721	-258.42422	1453.24158	139.81894	-55.06127	1410.84436	37.67466	-217.86330	1435.29797	342.36160	14.61763	1345.33362	158.40204	-137.36336	1255.43054	266.25549	-9.07451	1430.52124	311.87677	-268.69394	1141.95215	539.90271	68.56796	1071.15747	84.87679	-269.39023	921.26184	562.56561	-7.75779	889.45300	-50.38292	-154.66132	1022.47534	411.04947	-56.66426	994.22430	326.36356	64.01157	994.49188	571.69031	-195.81497	486.99704	547.99298	94.53927	549.11865	348.19763	-221.13467	155.61197	443.90265	52.67138	114.63591	353.08490	
558	5.570	-161.00462	1303.30591	24.98768	-150.06282	1587.22742	145.58342	-257.73181	1451.93359	137.91904	-55.48676	1410.51123	36.59910	-220.00478	1436.27246	341.27838	13.07197	1345.17004	156.68533	-139.02560	1255.39294	264.83130	-9.80212	1430.38293	310.35040	-268.95474	1142.48938	539.46936	66.82570	1070.90723	83.65887	-270.47269	922.51837	561.82715	-9.06642	888.43457	-51.36306	-155.21634	1022.21259	409.82193	-57.20611	994.30774	324.88181	63.83377	995.04529	570.55792	-196.72755	487.20004	547.62012	94.62702	549.27960	347.09662	-222.65656	154.54733	446.50012	53.11383	114.92698	352.46774	
559	5.580	-161.24513	1302.05029	24.37649	-151.35663	1586.95850	143.97182	-257.97409	1451.68982	136.36264	-56.11456	1410.32861	35.38659	-220.43803	1436.50903	340.31439	12.24891	1344.90942	155.34738	-140.30843	1255.89807	264.40045	-10.55856	1430.43872	308.91580	-269.07608	1143.27026	538.81049	64.26123	1070.21887	82.41776	-270.72202	923.06213	561.17230	-10.67690	887.33533	-52.22512	-155.90030	1022.24725	408.91000	-58.05802	994.23413	324.20871	62.86400	995.04309	569.44843	-197.10767	487.14581	546.73364	94.93097	549.67670	345.86996	-223.84160	153.69785	448.78650	52.22466	115.08617	351.98141	
560	5.590	-161.56149	1301.46387	24.20220	-152.35425	1586.66772	142.70013	-260.52060	1451.62964	135.23106	-56.74693	1409.78906	34.51547	-220.85443	1436.69763	339.24530	10.77928	1345.10437	153.70366	-141.84166	1255.37024	263.16858	-11.82970	1430.61975	307.62308	-269.26053	1143.90466	538.39099	62.28310	1070.45203	81.50370	-271.19919	923.60950	560.50836	-12.63192	886.31775	-52.55303	-156.25606	1022.20258	407.59421	-58.64952	993.65735	322.95990	62.44075	996.00684	568.98004	-197.53210	487.00455	545.91284	95.16487	549.90570	344.77277	-225.66614	153.01740	450.54272	52.41391	114.30853	350.92310	
561	5.600	-162.05687	1300.69202	23.44373	-153.14406	1586.14905	140.53706	-261.59677	1450.89661	133.63715	-57.47330	1409.10559	33.51357	-220.99190	1436.20789	338.34531	9.90565	1344.45642	152.41380	-142.76276	1255.37317	262.69159	-12.33514	1430.54211	306.56067	-269.04898	1144.27222	537.50012	60.58103	1069.91418	80.45826	-271.60583	924.14679	559.96558	-13.96281	885.10583	-52.63312	-156.95227	1022.40466	406.99512	-59.34330	994.52197	322.28769	62.12660	996.25189	567.60120	-198.04004	486.67584	545.63062	95.66170	549.80298	343.99728	-226.67763	152.46373	452.55182	53.49575	115.01344	350.21384	
562	5.610	-162.70969	1299.23792	22.61174	-154.25188	1585.64844	138.91721	-261.65994	1449.70313	132.32487	-57.90117	1408.00562	32.38244	-222.62289	1437.07080	337.25531	8.63886	1343.95142	151.88756	-144.13994	1256.02771	262.37161	-13.21929	1430.43762	305.33084	-269.02719	1144.58325	537.03546	59.08276	1069.40784	79.53800	-271.74539	924.92285	559.13153	-15.45886	884.24683	-52.98801	-157.58946	1022.57452	406.41245	-60.16221	994.54083	321.44632	61.82964	997.06250	566.48602	-198.28386	486.79633	545.21246	96.10745	550.03851	343.35138	-228.08792	151.78734	454.34024	53.56897	114.89871	349.31973	
563	5.620	-163.29637	1298.63782	21.28787	-155.21942	1585.22717	137.19382	-263.21265	1449.86304	130.82297	-58.60212	1407.17346	31.72523	-223.27711	1437.01257	336.35901	7.25327	1343.46838	150.58273	-145.16701	1255.96191	261.50537	-14.21879	1430.47803	303.74789	-268.62515	1145.01062	536.04877	57.36916	1069.24341	78.33648	-271.85068	925.60345	558.08527	-17.08835	883.70953	-53.66018	-158.30936	1022.81274	405.83847	-61.05312	994.81165	320.07043	60.98947	997.04132	565.46655	-198.43456	486.79547	544.99817	97.08260	550.57111	343.19547	-229.28769	150.49240	456.07196	53.69876	114.99845	348.32895	
564	5.630	-163.63846	1297.89380	20.96150	-156.02069	1584.48901	135.38531	-262.55264	1448.61633	128.88747	-59.36669	1406.16113	30.81259	-224.56297	1437.01831	335.62833	6.14514	1343.53149	149.90456	-146.58379	1255.45056	260.74356	-14.71340	1430.51257	302.71216	-268.19662	1144.65613	535.40613	56.29501	1068.39453	77.84876	-271.96866	926.00702	556.95935	-18.46762	883.22821	-53.62374	-158.90001	1023.06421	405.27441	-61.70566	994.16144	319.16684	60.71928	997.06812	564.80798	-198.22191	486.76361	544.77789	97.91707	551.01508	342.20639	-229.23315	149.60165	458.26254	53.99294	115.19566	347.65884	
565	5.640	-163.92410	1296.93616	20.62159	-156.95419	1584.06946	133.42641	-264.50095	1448.86462	127.72594	-59.56660	1405.21692	29.49059	-225.61249	1437.08936	334.82513	5.09920	1342.87366	148.27560	-147.38719	1255.41687	260.02216	-15.56919	1430.55945	301.43005	-267.85028	1144.64832	534.51758	55.28440	1068.16370	76.78231	-272.02411	926.38757	556.27057	-19.70944	882.71204	-54.39994	-159.40541	1023.00452	404.62598	-62.28344	994.70276	318.28818	60.60649	996.92596	563.15070	-198.08861	486.43805	544.57495	98.63924	550.67804	342.51291	-229.50644	147.72893	459.40527	54.07693	115.31231	346.91595	
566	5.650	-164.33432	1295.64551	19.95503	-157.59700	1583.56885	131.51373	-263.65231	1447.54126	125.83997	-60.01954	1404.53650	28.61690	-225.91592	1437.04211	333.81696	4.47146	1343.14709	147.04382	-148.70801	1255.83484	259.08786	-16.51800	1430.21069	300.23166	-267.52524	1144.80908	533.54779	54.04660	1068.38086	76.04948	-272.11804	926.47620	555.49249	-20.72635	882.41315	-55.44135	-159.92249	1023.10779	404.13324	-63.24447	995.28833	317.29221	61.00046	997.12488	562.32611	-197.82072	486.42133	544.34625	99.75321	550.93134	342.19858	-230.81972	147.15663	461.32642	54.01632	115.41620	346.54401	
567	5.660	-164.66299	1294.42322	19.20086	-158.23376	1583.07361	129.81100	-266.02335	1447.77673	124.92043	-60.76945	1403.89819	27.74305	-225.38625	1436.23511	332.65918	3.72395	1343.24341	146.04115	-149.30417	1255.33850	257.69864	-16.92325	1430.03931	299.16458	-267.51736	1144.98352	532.83289	53.04856	1068.23108	75.29651	-271.49777	926.97339	554.24127	-21.51703	882.23761	-56.58372	-160.53012	1023.05957	403.54306	-63.70331	995.00629	316.78955	60.50041	997.63525	561.72449	-197.62741	486.55460	544.10907	100.13383	550.96777	342.43988	-231.54990	146.56985	463.11316	53.96437	115.48016	345.77737	
568	5.670	-165.31555	1294.05457	18.58274	-158.94470	1582.47961	127.70134	-266.67117	1447.10376	123.49705	-61.39159	1403.10132	26.10907	-227.58018	1437.21387	331.85519	2.41899	1342.76990	144.70451	-150.61246	1255.40515	256.39447	-17.81816	1430.04871	297.62299	-267.08286	1144.89783	531.88623	51.72671	1067.70667	74.27979	-271.63608	927.10266	553.13788	-22.10563	881.46411	-56.88617	-161.08485	1023.23688	403.08270	-64.50328	995.00629	316.02402	60.18901	997.93073	560.44952	-196.89453	486.59680	543.44714	100.43328	551.08173	342.05295	-232.02928	144.64099	464.75732	54.10225	115.74876	345.54355	
569	5.680	-166.73877	1293.04041	17.57890	-159.71663	1582.14954	126.46368	-265.88763	1446.08508	121.98168	-61.90524	1402.06824	25.66285	-227.90627	1436.81702	330.48972	1.70905	1342.43018	144.37541	-150.53294	1254.31763	255.48366	-18.61879	1430.00146	296.75650	-266.77493	1144.87793	530.88593	50.92461	1067.49573	73.39893	-271.20801	927.43073	552.69946	-23.32757	881.57355	-57.97978	-161.43573	1023.29645	402.36981	-64.77538	994.85510	315.23331	60.12729	997.88586	558.63947	-196.11282	486.43344	543.09320	100.59637	551.38269	341.62585	-232.82068	144.13010	466.89505	54.22202	115.78266	344.40778	
